<svg id="Layer_1" data-name="Layer 1" xmlns="http://www.w3.org/2000/svg" xmlns:xlink="http://www.w3.org/1999/xlink" viewBox="0 0 712.17021 379.19149"><defs><style>.cls-1{fill:none;}.cls-2{clip-path:url(#clip-path);}.cls-3{font-size:61.1819px;fill:#113c5f;font-family:Montserrat-Bold, Montserrat;font-weight:700;}.cls-4{letter-spacing:-0.014em;}.cls-5{clip-path:url(#clip-path-2);}.cls-6{fill:#15365a;}.cls-7{fill:#fed01b;}</style><clipPath id="clip-path"><rect class="cls-1" x="56.51064" y="27.3617" width="609.70213" height="321.70213"/></clipPath><clipPath id="clip-path-2"><rect class="cls-1" x="-183.91489" y="-350.40426" width="1080" height="1080"/></clipPath></defs><title>log 1-comete</title><g class="cls-2"><text class="cls-3" transform="translate(345.57925 209.02055)"><tspan class="cls-4">C</tspan><tspan x="43.98926" y="0">OMÈTE</tspan></text><g class="cls-5"><path class="cls-6" d="M141.94451,201.04917c16.213,5.942,32.755,4.57306,49.15,1.42005,39.774-7.65,76.26-24.237,112.582-41.894a15.48644,15.48644,0,0,0-.294-1.753c-14.397-44.96-60.834-74.135-107.807-67.74-42.023,5.721-74.594,34.836-84.729,75.916a9.65691,9.65691,0,0,0,.618,6.112c6.543,13.184,16.489,22.811,30.48,27.939"/><path class="cls-6" d="M158.62121,272.83525c-1.112,2.936-.454,4.315,2.279,5.75a99.54216,99.54216,0,0,0,41.392,11.634c45.28,2.4,85.458-24.445,100.632-67.137,5.513-15.513,6.695-31.452,4.372-48.191a26.99409,26.99409,0,0,0-3.045.73c-24.551,9.43-48.663,19.843-71.756,32.468-20.32,11.109-39.959,23.242-56.528,39.67-7.321,7.258-13.627,15.258-17.346,25.076"/><path class="cls-7" d="M315.19939,167.94694c2.231,8.653,2.372,12.308,2.372,21.649a108.395,108.395,0,1,1-108.395-108.395c50.076,0,91.191,30.28,103.579,76.502,2.56-1.195,5.058-2.365,7.446-3.486-13.782-48.968-57.711-81.115-111.025-81.115a116.49349,116.49349,0,1,0,116.494,116.494c0-10.687-.407-15.624-3.115-25.463Z"/><path class="cls-7" d="M321.33309,158.07286c-2.387,1.121-4.886,2.291-7.446,3.486-18.48,8.625-40.169,18.57-46.21,21.189-29.095,12.613-58.717,23.631-90.459,27.538-18.104,2.228-35.963,1.578-51.982-8.445-6.26-3.917-11.669-9.19195-17.547-13.914-2.665,35.554,20.488,71.631,42.386,82.966,3.798-5.656,7.171-11.573,11.4-16.801,11.296-13.969,25.687-24.319,40.898-33.62l111.778-57.939,7.358-3.814,19.447-10.08c-3.077,1.599-10.542,5.168-19.623,9.434"/></g></g></svg>